<svg width="36" height="36" viewBox="0 0 36 36" fill="none" xmlns="http://www.w3.org/2000/svg">
<path d="M24.6649 13C24.6648 11.4591 24.1563 9.96117 23.2182 8.73866C22.2801 7.51615 20.9649 6.63734 19.4764 6.23852C17.9879 5.8397 16.4095 5.94316 14.9858 6.53285C13.5622 7.12254 12.3729 8.16552 11.6024 9.50001C11.3375 9.95946 11.2659 10.5053 11.4033 11.0175C11.5407 11.5297 11.876 11.9664 12.3353 12.2315C12.7946 12.4967 13.3404 12.5686 13.8527 12.4314C14.365 12.2942 14.8018 11.9592 15.0672 11.5C15.3309 11.0444 15.7096 10.666 16.1655 10.4028C16.6214 10.1395 17.1384 10.0006 17.6649 10C18.4605 10 19.2236 10.3161 19.7862 10.8787C20.3488 11.4413 20.6649 12.2044 20.6649 13C20.6649 13.7957 20.3488 14.5587 19.7862 15.1213C19.2236 15.6839 18.4605 16 17.6649 16H17.66C17.5315 16.0129 17.4047 16.0388 17.2814 16.0774C17.1467 16.0914 17.0136 16.1186 16.8842 16.1587C16.7741 16.2185 16.6699 16.2888 16.5732 16.3684C16.4583 16.4309 16.3498 16.5044 16.2492 16.5879C16.1592 16.6952 16.0808 16.8117 16.0151 16.9353C15.9422 17.0255 15.8775 17.122 15.8217 17.2237C15.7782 17.3615 15.7495 17.5036 15.736 17.6475C15.7012 17.7625 15.6774 17.8805 15.6649 18V20L15.6695 20.0227L15.6717 21.0049C15.6731 21.5345 15.8844 22.0419 16.2593 22.4159C16.6342 22.7899 17.1421 22.9999 17.6717 23H17.6766C18.207 22.9987 18.7152 22.7867 19.0893 22.4107C19.4635 22.0348 19.673 21.5256 19.6717 20.9951L19.6686 19.6724C21.1078 19.2446 22.3708 18.3646 23.2707 17.1628C24.1706 15.961 24.6594 14.5014 24.6649 13ZM16.2596 26.58C15.9788 26.8585 15.7868 27.214 15.708 27.6016C15.6293 27.9892 15.6671 28.3914 15.8169 28.7575C15.9667 29.1235 16.2217 29.4369 16.5495 29.6581C16.8774 29.8792 17.2635 29.9982 17.659 30C18.1894 29.9957 18.698 29.7881 19.0799 29.42C19.4511 29.0406 19.659 28.5309 19.659 28.0001C19.659 27.4693 19.4511 26.9596 19.0799 26.5802C18.697 26.2234 18.1931 26.0249 17.6698 26.0249C17.1464 26.0249 16.6425 26.2232 16.2596 26.58Z" fill="white"/>
</svg>
