<svg width="36" height="36" viewBox="0 0 36 36" fill="none" xmlns="http://www.w3.org/2000/svg">
<path fill-rule="evenodd" clip-rule="evenodd" d="M28.1098 23.6654H28.1098C27.0513 23.3898 26.2947 22.4582 26.242 21.3657L25.3655 13.9952V13.9952C25.0011 11.0175 22.8675 8.5582 19.9711 7.77715V7.77715C19.8482 6.68558 18.8637 5.90026 17.7722 6.02309C16.8498 6.12688 16.1219 6.85481 16.0181 7.77715V7.77715C13.1216 8.55814 10.988 11.0174 10.6235 13.995L9.747 21.3655V21.3656C9.69414 22.4581 8.93752 23.3896 7.879 23.6653C7.2426 23.8355 6.86467 24.4894 7.03486 25.1258C7.17592 25.6532 7.65708 26.0175 8.203 26.0103H27.7861C28.4449 26.019 28.9859 25.492 28.9945 24.8333C29.0017 24.2874 28.6374 23.8063 28.11 23.6653L28.1098 23.6654ZM17.9948 30.0104C19.5537 30.0138 20.857 28.8261 20.9981 27.2736C21.0056 27.136 20.9001 27.0183 20.7624 27.0108C20.7568 27.0105 20.7511 27.0104 20.7454 27.0104H15.2441C15.1062 27.0085 14.9929 27.1186 14.9909 27.2565C14.9908 27.2622 14.9909 27.2679 14.9912 27.2736C15.1324 28.8262 16.4358 30.0139 17.9948 30.0104V30.0104Z" fill="white"/>
<circle cx="26" cy="10" r="5" fill="#FF6464" stroke="#766AFE" stroke-width="2"/>
</svg>
