<svg width="24" height="24" viewBox="0 0 24 24" fill="none" xmlns="http://www.w3.org/2000/svg">
<path fill-rule="evenodd" clip-rule="evenodd" d="M17.0796 16.7552C16.8968 16.7562 16.7346 16.6383 16.6792 16.464C16.116 14.6383 14.5556 13.756 12.0053 13.7553V15.7581V15.7581C12.0051 16.0346 11.7808 16.2587 11.5042 16.2585C11.3872 16.2585 11.2739 16.2174 11.1839 16.1425L6.67739 12.3893C6.46509 12.2126 6.43623 11.8973 6.61294 11.685C6.63242 11.6616 6.65399 11.64 6.67739 11.6205L11.1839 7.86749C11.3964 7.69046 11.7122 7.71919 11.8892 7.93168C11.9641 8.02159 12.0052 8.13489 12.0053 8.25192V10.2554C15.5737 10.4371 17.3715 12.5966 17.5019 16.3116C17.5122 16.5461 17.3304 16.7445 17.0959 16.7548C17.0905 16.755 17.085 16.7552 17.0796 16.7552L17.0796 16.7552Z" fill="#7D7F84"/>
</svg>
