<svg width="14" height="14" viewBox="0 0 14 14" fill="none" xmlns="http://www.w3.org/2000/svg">
<path d="M10.7334 6.06631C10.561 6.06631 10.3957 6.13479 10.2738 6.25669C10.1519 6.37859 10.0834 6.54392 10.0834 6.71631V11.3833C10.0834 11.5557 10.0149 11.721 9.89299 11.8429C9.77109 11.9648 9.60576 12.0333 9.43337 12.0333H2.28337C2.11098 12.0333 1.94565 11.9648 1.82375 11.8429C1.70186 11.721 1.63337 11.5557 1.63337 11.3833V4.23331C1.63337 4.06092 1.70186 3.89559 1.82375 3.77369C1.94565 3.65179 2.11098 3.58331 2.28337 3.58331H6.95037C7.12276 3.58331 7.28809 3.51483 7.40999 3.39293C7.53189 3.27103 7.60037 3.1057 7.60037 2.93331C7.60037 2.76092 7.53189 2.59559 7.40999 2.47369C7.28809 2.35179 7.12276 2.28331 6.95037 2.28331H2.28337C1.7662 2.28331 1.27021 2.48876 0.904516 2.85445C0.53882 3.22015 0.333374 3.71614 0.333374 4.23331V11.3833C0.333374 11.9005 0.53882 12.3965 0.904516 12.7622C1.27021 13.1279 1.7662 13.3333 2.28337 13.3333H9.43337C9.95055 13.3333 10.4465 13.1279 10.8122 12.7622C11.1779 12.3965 11.3834 11.9005 11.3834 11.3833V6.71631C11.3834 6.54392 11.3149 6.37859 11.193 6.25669C11.0711 6.13479 10.9058 6.06631 10.7334 6.06631ZM13.2814 0.736313C13.2154 0.577486 13.0892 0.451272 12.9304 0.385313C12.8522 0.352006 12.7683 0.33434 12.6834 0.333313H8.78337C8.61098 0.333313 8.44565 0.401795 8.32375 0.523694C8.20186 0.645592 8.13337 0.810922 8.13337 0.983313C8.13337 1.1557 8.20186 1.32103 8.32375 1.44293C8.44565 1.56483 8.61098 1.63331 8.78337 1.63331H11.1169L4.42187 8.32181C4.36095 8.38224 4.31259 8.45413 4.27959 8.53334C4.24659 8.61255 4.2296 8.6975 4.2296 8.78331C4.2296 8.86912 4.24659 8.95408 4.27959 9.03329C4.31259 9.1125 4.36095 9.18439 4.42187 9.24481C4.4823 9.30574 4.55419 9.35409 4.6334 9.38709C4.71261 9.42009 4.79757 9.43708 4.88337 9.43708C4.96918 9.43708 5.05414 9.42009 5.13335 9.38709C5.21256 9.35409 5.28445 9.30574 5.34487 9.24481L12.0334 2.54981V4.88331C12.0334 5.0557 12.1019 5.22103 12.2238 5.34293C12.3457 5.46483 12.511 5.53331 12.6834 5.53331C12.8558 5.53331 13.0211 5.46483 13.143 5.34293C13.2649 5.22103 13.3334 5.0557 13.3334 4.88331V0.983313C13.3323 0.898373 13.3147 0.814457 13.2814 0.736313V0.736313Z" fill="#7D7F84"/>
</svg>
