<svg width="22" height="12" viewBox="0 0 22 12" fill="none" xmlns="http://www.w3.org/2000/svg">
<path d="M20.9998 4.99997H3.40579L6.70653 1.71268C6.89488 1.52453 7.00069 1.26935 7.00069 1.00326C7.00069 0.737183 6.89488 0.481998 6.70653 0.29385C6.51819 0.105701 6.26274 0 5.99637 0C5.73001 0 5.47456 0.105701 5.28621 0.29385L0.285078 5.28973C0.194017 5.38476 0.122636 5.49681 0.0750305 5.61946C-0.0250102 5.86272 -0.0250102 6.13557 0.0750305 6.37883C0.122636 6.50148 0.194017 6.61354 0.285078 6.70856L5.28621 11.7044C5.3792 11.7981 5.48982 11.8724 5.61171 11.9232C5.7336 11.9739 5.86433 12 5.99637 12C6.12841 12 6.25915 11.9739 6.38104 11.9232C6.50292 11.8724 6.61355 11.7981 6.70653 11.7044C6.80028 11.6116 6.87469 11.501 6.92547 11.3793C6.97625 11.2575 7.0024 11.1269 7.0024 10.995C7.0024 10.8631 6.97625 10.7325 6.92547 10.6108C6.87469 10.489 6.80028 10.3785 6.70653 10.2856L3.40579 6.99832H20.9998C21.2651 6.99832 21.5195 6.89305 21.707 6.70567C21.8946 6.51829 22 6.26415 22 5.99915C22 5.73415 21.8946 5.48001 21.707 5.29262C21.5195 5.10524 21.2651 4.99997 20.9998 4.99997Z" fill="#3A3B3E"/>
</svg>
