<svg width="17" height="12" viewBox="0 0 17 12" fill="none" xmlns="http://www.w3.org/2000/svg">
<path d="M16.1335 0.347263C16.0276 0.237227 15.9017 0.149889 15.763 0.0902873C15.6243 0.0306856 15.4755 0 15.3252 0C15.1749 0 15.0261 0.0306856 14.8873 0.0902873C14.7486 0.149889 14.6227 0.237227 14.5168 0.347263L6.03519 9.10519L2.47176 5.41888C2.36187 5.30942 2.23215 5.22335 2.09 5.16558C1.94786 5.10782 1.79607 5.07949 1.64331 5.08222C1.49055 5.08494 1.3398 5.11867 1.19968 5.18147C1.05956 5.24427 0.932805 5.33491 0.826655 5.44823C0.720505 5.56154 0.637038 5.69531 0.581021 5.84189C0.525003 5.98846 0.497531 6.14498 0.500174 6.30251C0.502817 6.46004 0.535523 6.61548 0.596424 6.75997C0.657325 6.90447 0.745229 7.03518 0.855117 7.14464L5.22687 11.6527C5.33271 11.7628 5.45862 11.8501 5.59736 11.9097C5.73609 11.9693 5.8849 12 6.03519 12C6.18548 12 6.33429 11.9693 6.47302 11.9097C6.61176 11.8501 6.73767 11.7628 6.84351 11.6527L16.1335 2.07302C16.249 1.96309 16.3413 1.82966 16.4044 1.68115C16.4674 1.53264 16.5 1.37227 16.5 1.21014C16.5 1.04801 16.4674 0.88764 16.4044 0.739132C16.3413 0.590623 16.249 0.457197 16.1335 0.347263Z" fill="white"/>
</svg>
