<svg width="90" height="28" viewBox="0 0 90 28" fill="none" xmlns="http://www.w3.org/2000/svg">
<g clip-path="url(#clip0)">
<path d="M14.326 21.7156C14.3042 21.6519 14.2629 21.5969 14.2081 21.5584C14.1534 21.5199 14.0879 21.5 14.0213 21.5015C13.9556 21.5005 13.8914 21.5207 13.838 21.5592C13.7845 21.5978 13.7447 21.6526 13.7243 21.7156L11.467 27.4859C11.4469 27.53 11.4371 27.5783 11.4386 27.6269C11.4386 27.7113 11.4718 27.7924 11.5309 27.8521C11.59 27.9118 11.6701 27.9454 11.7537 27.9454C11.8221 27.948 11.8893 27.9272 11.9446 27.8865C11.9998 27.8458 12.04 27.7874 12.0585 27.7209L12.7325 26.0107H15.3152L15.9841 27.7287C16.0045 27.7933 16.0454 27.8493 16.1005 27.888C16.1556 27.9268 16.2218 27.946 16.2888 27.9428C16.3315 27.9438 16.3739 27.936 16.4134 27.9198C16.4529 27.9037 16.4888 27.8795 16.5187 27.8488C16.5486 27.8198 16.5723 27.7849 16.5883 27.7463C16.6043 27.7077 16.6122 27.6661 16.6117 27.6243C16.612 27.5758 16.6023 27.5278 16.5833 27.4833L14.326 21.7156ZM12.9288 25.4284L14.0213 22.5564L15.1215 25.4284H12.9288Z" fill="#666666"/>
<path d="M24.556 22.0233C24.8788 22.0208 25.1975 22.096 25.4858 22.2427C25.7537 22.3739 25.9867 22.5682 26.165 22.8092C26.2009 22.8621 26.2527 22.9019 26.3127 22.9226C26.3727 22.9433 26.4377 22.9439 26.4981 22.9243C26.5585 22.9046 26.611 22.8658 26.6477 22.8135C26.6845 22.7613 26.7036 22.6984 26.7022 22.6343C26.7015 22.5638 26.6789 22.4953 26.6376 22.4385C26.4087 22.1269 26.107 21.8776 25.7595 21.7126C25.3833 21.534 24.9716 21.4447 24.556 21.4515C23.6366 21.4515 22.9255 21.7274 22.4227 22.2792C21.92 22.831 21.6677 23.6456 21.666 24.7231C21.666 26.9058 22.6276 27.9972 24.5508 27.9972C24.9687 28.0013 25.3823 27.9122 25.7621 27.7361C26.1137 27.5804 26.4172 27.3314 26.6402 27.0155C26.6755 26.9632 26.6944 26.9013 26.6944 26.838C26.6952 26.7989 26.6883 26.7601 26.6741 26.7238C26.6599 26.6875 26.6387 26.6544 26.6118 26.6265C26.5846 26.5975 26.5517 26.5746 26.5153 26.5593C26.4788 26.544 26.4395 26.5366 26.4 26.5377C26.3529 26.5355 26.3061 26.5457 26.264 26.5672C26.2219 26.5887 26.186 26.6208 26.1598 26.6604C25.9846 26.9113 25.7441 27.1082 25.4651 27.2296C25.1767 27.3601 24.8642 27.4268 24.5483 27.4254C23.8079 27.4254 23.25 27.2122 22.8747 26.7857C22.4994 26.3593 22.3143 25.6717 22.3194 24.7231C22.3194 23.8197 22.5123 23.1434 22.8979 22.6944C23.1076 22.465 23.3653 22.2858 23.6521 22.1697C23.9389 22.0536 24.2477 22.0036 24.556 22.0233Z" fill="#666666"/>
<path d="M34.6412 21.7156C34.6194 21.6519 34.5781 21.5969 34.5233 21.5584C34.4686 21.5199 34.4031 21.5 34.3365 21.5015C34.2708 21.5005 34.2066 21.5207 34.1531 21.5592C34.0997 21.5978 34.0599 21.6526 34.0395 21.7156L31.7822 27.4859C31.7621 27.53 31.7523 27.5783 31.7538 27.6269C31.7538 27.7114 31.787 27.7924 31.8461 27.8521C31.9052 27.9118 31.9853 27.9454 32.0689 27.9454C32.1372 27.948 32.2045 27.9272 32.2598 27.8865C32.315 27.8458 32.3551 27.7874 32.3736 27.7209L33.0477 26.0107H35.6304L36.2967 27.7313C36.3171 27.7959 36.358 27.852 36.4131 27.8907C36.4682 27.9294 36.5344 27.9486 36.6015 27.9454C36.6441 27.9464 36.6865 27.9386 36.726 27.9224C36.7655 27.9063 36.8014 27.8821 36.8313 27.8514C36.8612 27.8224 36.8849 27.7875 36.9009 27.7489C36.9169 27.7103 36.9248 27.6687 36.9243 27.6269C36.9246 27.5784 36.9149 27.5304 36.8959 27.4859L34.6412 21.7156ZM33.244 25.4284L34.3365 22.5564L35.4367 25.4284H33.244Z" fill="#666666"/>
<path d="M43.9361 21.5742H42.6319C42.5501 21.5769 42.4726 21.6117 42.4158 21.6711C42.3589 21.7306 42.3271 21.8101 42.3271 21.8928V27.5507C42.3271 27.6352 42.3603 27.7162 42.4194 27.776C42.4785 27.8357 42.5587 27.8693 42.6422 27.8693H43.9465C44.8711 27.8693 45.5787 27.623 46.0694 27.1304C46.5601 26.6378 46.802 25.8353 46.7951 24.7231C46.7951 23.6143 46.5498 22.8118 46.0591 22.3157C45.5684 21.8197 44.8607 21.5725 43.9361 21.5742ZM45.5916 26.7048C45.2146 27.0947 44.6627 27.2896 43.9361 27.2896H42.947V22.1539H43.9361C44.6644 22.1539 45.2163 22.3514 45.5916 22.7466C45.967 23.1417 46.1555 23.8014 46.1572 24.7257C46.1572 25.6552 45.9687 26.3149 45.5916 26.7048Z" fill="#666666"/>
<path d="M55.7312 27.2896H52.9755V24.9841H55.0107C55.0867 24.9841 55.1596 24.9536 55.2134 24.8993C55.2671 24.8449 55.2973 24.7712 55.2973 24.6943C55.2973 24.6175 55.2671 24.5437 55.2134 24.4894C55.1596 24.435 55.0867 24.4045 55.0107 24.4045H52.9755V22.1539H55.6305C55.7065 22.1539 55.7794 22.1233 55.8332 22.069C55.887 22.0146 55.9172 21.9409 55.9172 21.864C55.9172 21.7872 55.887 21.7135 55.8332 21.6591C55.7794 21.6048 55.7065 21.5742 55.6305 21.5742H52.6579C52.5743 21.5742 52.4941 21.6078 52.4351 21.6675C52.376 21.7273 52.3428 21.8083 52.3428 21.8928V27.5507C52.3461 27.6329 52.3808 27.7106 52.4395 27.7676C52.4982 27.8245 52.5765 27.8563 52.6579 27.8562H55.7312C55.8072 27.8562 55.8802 27.8257 55.9339 27.7713C55.9877 27.717 56.0179 27.6432 56.0179 27.5664C56.0179 27.4895 55.9877 27.4158 55.9339 27.3615C55.8802 27.3071 55.8072 27.2766 55.7312 27.2766V27.2896Z" fill="#666666"/>
<path d="M66.7953 21.5014C66.7374 21.502 66.6808 21.5189 66.632 21.5503C66.5832 21.5816 66.544 21.6262 66.5189 21.6789L64.2798 25.9139L62.0406 21.6763C62.018 21.6218 61.9794 21.5755 61.93 21.5438C61.8806 21.512 61.8227 21.4963 61.7643 21.4988C61.6848 21.4988 61.6086 21.5308 61.5525 21.5876C61.5226 21.6155 61.4989 21.6494 61.4829 21.6872C61.4668 21.725 61.4589 21.7658 61.4595 21.8069V27.6319C61.4595 27.7137 61.4916 27.792 61.5488 27.8498C61.6059 27.9076 61.6834 27.94 61.7643 27.94C61.8451 27.94 61.9226 27.9076 61.9798 27.8498C62.0369 27.792 62.069 27.7137 62.069 27.6319V23.034L64.0034 26.6711C64.026 26.7257 64.0646 26.772 64.114 26.8037C64.1634 26.8354 64.2213 26.8511 64.2798 26.8487C64.3384 26.8502 64.3962 26.8342 64.4458 26.8026C64.4955 26.771 64.5347 26.7252 64.5587 26.6711L66.5008 23.034V27.6346C66.5009 27.7149 66.5325 27.7919 66.5886 27.8487C66.6168 27.878 66.6505 27.9014 66.6878 27.9173C66.7251 27.9333 66.7651 27.9415 66.8056 27.9415C66.8461 27.9415 66.8861 27.9333 66.9234 27.9173C66.9606 27.9014 66.9944 27.878 67.0225 27.8487C67.0787 27.7919 67.1103 27.7149 67.1103 27.6346V21.8095C67.111 21.7688 67.1036 21.7285 67.0886 21.6908C67.0735 21.6531 67.0511 21.6188 67.0226 21.5901C66.9942 21.5613 66.9603 21.5386 66.923 21.5234C66.8857 21.5082 66.8458 21.5007 66.8056 21.5014H66.7953Z" fill="#666666"/>
<path d="M76.5447 21.5015C76.4925 21.5012 76.4411 21.5147 76.3958 21.5409C76.3504 21.567 76.3127 21.6047 76.2864 21.6503L74.649 24.3056L73.0116 21.6503C72.9851 21.6049 72.9473 21.5673 72.902 21.5412C72.8567 21.5151 72.8055 21.5014 72.7533 21.5015C72.6698 21.5015 72.5896 21.535 72.5305 21.5948C72.4714 21.6545 72.4382 21.7355 72.4382 21.82C72.4377 21.879 72.4538 21.937 72.4847 21.9871L74.3442 24.9427V27.6268C74.3442 27.7113 74.3774 27.7923 74.4365 27.852C74.4956 27.9118 74.5758 27.9453 74.6593 27.9453C74.7429 27.9453 74.823 27.9118 74.8821 27.852C74.9412 27.7923 74.9744 27.7113 74.9744 27.6268V24.9427L76.8339 21.9871C76.8648 21.937 76.8809 21.879 76.8804 21.82C76.8804 21.7782 76.8723 21.7368 76.8564 21.6981C76.8406 21.6595 76.8174 21.6243 76.7881 21.5948C76.7589 21.5652 76.7241 21.5417 76.6859 21.5257C76.6477 21.5097 76.6067 21.5015 76.5653 21.5015H76.5447Z" fill="#666666"/>
<path d="M20.0572 15.8223C20.0516 15.8335 20.0544 15.8335 20.0572 15.8223V15.8223Z" fill="#21375B"/>
<path d="M20.1099 15.9521L20.0906 15.9297L20.1099 15.9521Z" fill="#21375B"/>
<path d="M38.2363 17.5298C38.2674 17.5585 38.301 17.5872 38.332 17.6133L38.2415 17.5324L38.2363 17.5298Z" fill="#21375B"/>
<path d="M88.0624 13.757C87.5166 12.9232 86.914 12.0242 86.2546 11.0598C86.7918 9.63948 87.8627 7.66646 89.4674 5.14078L88.8424 4.50893L86.2313 3.61598C85.7329 3.56115 85.1776 4.16428 84.1445 5.37577V4.16689L83.5841 3.44626L82.2076 3.65775C82.2076 3.65775 80.6063 3.91885 79.8444 3.95801L79.4364 3.98935L79.4544 4.13295C79.4544 4.20606 79.4544 4.27916 79.4544 4.34705C79.4786 4.57074 79.4898 4.79566 79.488 5.02068V5.6917C79.4844 7.54669 79.3766 9.39997 79.1652 11.2426L78.7881 14.6656C78.5502 14.3082 78.287 13.9687 78.0004 13.6499L76.4508 11.9006C77.3688 11.3926 78.1337 10.6429 78.6642 9.73086C79.0808 8.93365 79.2892 7.91189 79.2892 6.66559C79.2994 6.31842 79.2376 5.97292 79.1078 5.65138C78.9779 5.32984 78.7828 5.03938 78.535 4.79875L78.2251 4.49326C77.9873 4.15453 77.6853 3.86697 77.3367 3.64731C77.2204 3.57159 77.0965 3.49848 76.9648 3.42799C76.833 3.35749 76.6833 3.29222 76.5386 3.23217C75.7325 2.92248 74.875 2.77267 74.0128 2.79091C72.2225 2.75253 70.4567 3.21711 68.912 4.13295C68.8948 5.15819 68.7519 6.85532 68.4833 9.22433C68.4446 9.55593 68.4136 9.87708 68.3826 10.1956C67.4546 7.985 66.4301 5.74827 65.3092 3.48543L64.7488 2.91885C64.7204 2.87918 64.6986 2.83509 64.6842 2.7883H64.6558L64.1057 2.81441L62.5226 2.86141C61.802 2.89535 61.2519 2.8823 60.8697 2.8823H60.6114L59.5783 2.90057C59.5783 2.92929 59.5603 2.97629 59.5525 3.00501V3.02068C59.4492 3.35749 59.3485 3.70736 59.2529 4.06506C59.1066 4.60989 58.968 5.17821 58.8371 5.77002C58.6777 5.47653 58.4955 5.19628 58.2922 4.9319L58.0907 4.59248C57.21 3.31311 55.6889 2.79091 53.6253 2.79091C52.0568 2.78993 50.4969 3.02578 48.9972 3.49065C48.7857 3.12679 48.5249 2.79459 48.2224 2.50371L47.9641 2.26611C47.5845 1.71689 47.1104 1.24109 46.5643 0.861408C45.6919 0.277175 44.6637 -0.0234667 43.6175 -0.000210621C41.7098 -0.000210621 40.1774 0.499354 39.0204 1.49848C38.5669 1.89229 38.1797 2.35787 37.8737 2.87707C37.7285 3.12478 37.5999 3.38211 37.4889 3.64731L36.9724 3.14861C36.9724 3.14861 34.679 2.88752 33.3412 2.88752H29.7823C29.7616 2.88752 29.524 4.29222 29.524 4.29222C29.4129 5.0024 29.32 5.66559 29.2373 6.29483C29.2089 6.50632 29.1831 6.71781 29.1573 6.92146C28.8655 6.27286 28.4614 5.68219 27.9641 5.17734L27.7549 4.96585C27.6326 4.82485 27.3899 4.57072 27.0266 4.20344C26.8522 4.04206 26.6685 3.89123 26.4765 3.75175C25.2213 2.83443 23.5787 2.37577 21.5488 2.37577C21.4265 2.37577 21.2397 2.38882 20.9883 2.41493L20.8101 2.43321C20.7687 2.43209 20.7277 2.42415 20.6887 2.40971C20.6552 2.40971 20.6061 2.36532 20.5467 2.36532H20.1154C20.1154 2.36532 20.1154 2.62642 20.1154 2.93452L20.1541 4.80397C20.1541 5.29483 20.1541 5.91885 20.1283 6.64992C20.1929 6.7883 20.1929 6.79613 20.1283 6.64992C19.87 6.07467 19.5163 5.54835 19.0823 5.09378L18.8525 4.87969C18.516 4.44745 18.1121 4.07353 17.6567 3.77264C16.6736 3.11815 15.4322 2.79091 13.9325 2.79091C13.6509 2.79183 13.3699 2.81892 13.0932 2.87185C12.2007 3.05955 11.3592 3.44082 10.6267 3.98935C9.97524 4.44981 9.38576 4.99397 8.8731 5.60815C8.83178 5.66036 9.25275 4.66559 9.34056 4.42016L9.61433 3.66298C9.39508 3.34281 9.14694 3.04388 8.8731 2.77002C8.52875 2.20954 7.80475 1.92929 6.70109 1.92929C4.74861 1.92929 3.11293 2.82834 1.79405 4.62642C0.620953 6.17953 -0.014305 8.0796 -0.0138068 10.0337C-0.0266881 11.2048 0.312878 12.3521 0.959853 13.3236C1.13672 13.5868 1.33268 13.8364 1.54612 14.0703C1.75938 14.3153 1.99454 14.5399 2.2486 14.7413L2.43197 14.9267C2.67513 15.1698 2.93965 15.39 3.22226 15.5846C4.06745 16.1738 5.07278 16.4831 6.09933 16.4698C7.06525 16.4698 8.12413 16.0477 9.276 15.2034L9.43354 15.3627C9.74786 15.6795 10.0941 15.9621 10.4666 16.2061C11.6099 16.9598 12.9985 17.3366 14.6324 17.3366C15.4754 17.3505 16.3116 17.1829 17.0856 16.8448C17.8595 16.5067 18.5534 16.0059 19.1211 15.3758C19.4385 15.0023 19.7334 14.61 20.0043 14.2008L20.0612 15.522C20.0717 15.62 20.0717 15.719 20.0612 15.817C20.0612 15.8327 20.7249 16.6003 20.7249 16.6003C21.5447 16.759 22.3737 16.8646 23.2068 16.9162C24.0755 16.9248 24.9367 16.7537 25.7375 16.4133C26.5383 16.073 27.2617 15.5706 27.8634 14.9371C27.9512 14.8484 28.5684 14.1251 28.757 13.8405L28.6743 16.3549L29.3613 17.0938C30.3582 17.1982 30.9238 17.2504 31.0374 17.2504L36.8897 17.1199V16.0755C37.1232 16.4818 37.4402 16.8326 37.8195 17.1042L38.1217 17.4149L38.2327 17.5481C38.2714 17.5873 38.3128 17.6238 38.3541 17.6604L38.3128 17.6238L38.3902 17.6917L38.429 17.723L38.4057 17.7021L38.4806 17.7596L38.429 17.723C39.3036 18.4541 40.7818 18.8188 42.8634 18.817C44.4905 18.817 45.7456 18.394 46.8329 17.3627L46.9207 17.2478C47.4261 16.7823 47.8306 16.216 48.1088 15.5846C48.1493 15.9964 48.2751 16.395 48.4781 16.7544C48.5507 16.8869 48.6471 17.0046 48.7622 17.1016C48.8629 17.1826 49.1935 17.3862 49.1935 17.3862C49.1935 17.3862 49.6403 17.3027 50.4848 17.1251L53.6382 16.5246C53.6382 16.0337 53.6098 15.2713 53.5065 14.2348C53.4534 13.7143 53.4266 13.1914 53.4265 12.6682V12.5768C55.6217 11.7935 57.8454 10.7335 58.0752 10.2661L57.3185 15.5846C57.3507 15.5945 57.3819 15.6076 57.4115 15.6238L57.4606 15.6499L57.9926 16.2008L58.0055 16.2139C58.8029 16.6307 59.6651 16.9062 60.5546 17.0285L61.0711 17.1068C61.2536 17.1329 61.5265 17.1765 61.8898 17.2374C62.1799 16.5289 62.3602 15.7795 62.4244 15.0155C62.5277 14.173 62.619 13.7126 62.6982 13.6343C63.0841 13.5402 63.4758 13.4722 63.8707 13.4306H63.9224C64.1049 13.7787 64.3037 14.1469 64.519 14.535L65.7948 16.8379L66.4973 17.4698L68.5117 16.3679L68.8449 16.6995C69.2013 17.0677 69.7902 17.2217 70.614 17.2217C70.614 17.2217 72.0112 17.3001 72.4684 17.334C73.0159 17.2452 73.3077 16.5142 73.3077 15.1382V14.7491C73.3061 14.7542 73.3061 14.7597 73.3077 14.7648C73.6719 15.4828 73.9921 16.099 74.2866 16.6055L74.958 17.2243C75.7191 17.1837 76.4747 17.0718 77.2153 16.8901L78.6022 16.5585L78.5376 17.1303L79.2272 17.7622C79.809 17.9152 80.4058 18.0027 81.0066 18.0233C81.1203 18.0233 81.2339 18.0233 81.3475 18.0233H81.9519C82.4104 18.0136 82.8691 18.0302 83.3258 18.0729C83.5431 17.58 83.6541 17.0459 83.6513 16.5063C83.6513 16.2948 83.5944 15.4854 83.5944 15.4854V15.3888V15.4045C83.715 15.6551 83.8648 15.9528 84.0438 16.2974L84.5294 17.2269V17.2452L85.1983 17.8536C85.911 17.6699 86.6325 17.5226 87.3599 17.4123L89.5888 17.0442C89.5354 16.334 89.0266 15.2383 88.0624 13.757ZM0.17731 9.9554C0.155927 8.41308 0.557285 6.89488 1.33692 5.56898C0.557285 6.89488 0.155927 8.41308 0.17731 9.9554ZM8.1293 6.63164C7.44418 7.65001 7.0648 8.84686 7.03684 10.0781C7.03653 10.4852 7.06502 10.8918 7.12206 11.2948C6.17337 11.2496 5.43818 11.0755 4.91648 10.7726C4.73162 10.3923 4.64288 9.97158 4.65821 9.54809C4.65615 9.13397 4.73061 8.7231 4.87774 8.33661C5.00666 7.94635 5.25208 7.6061 5.58022 7.36271C6.02045 7.10615 6.49309 6.91116 6.98518 6.78308C7.39612 6.6544 7.81334 6.5472 8.23519 6.46193C8.2042 6.51676 8.16546 6.5742 8.1293 6.63164ZM15.2987 10.8092C15.1265 11.0786 14.889 11.299 14.6087 11.4493C14.3284 11.5997 14.0147 11.675 13.6975 11.6682C13.2801 11.6753 12.8687 11.568 12.5069 11.3575L12.4733 11.3392C12.3556 11.068 12.2992 10.7736 12.308 10.4776C12.3312 9.76076 12.5995 9.07423 13.0673 8.53504C13.5753 7.891 14.1366 7.56898 14.7512 7.56898C15.0133 7.56899 15.2725 7.62319 15.5131 7.72825H15.5441C15.5906 7.81228 15.6312 7.89953 15.6655 7.98935C15.7798 8.29719 15.8359 8.62401 15.8308 8.95279C15.8529 9.61057 15.6665 10.2583 15.2987 10.8014V10.8092ZM26.9646 14.0181C26.3941 14.6188 25.7079 15.0951 24.9483 15.4175C24.1888 15.7399 23.372 15.9016 22.5483 15.8927C21.8323 15.8529 21.1197 15.7657 20.415 15.6316C20.415 15.5446 20.4021 15.2557 20.3762 14.7648C20.359 14.4306 20.3504 14.146 20.3504 13.911C20.3504 13.7961 20.3504 13.6734 20.3504 13.5455C20.7351 12.6705 20.9297 11.7223 20.9212 10.7648C20.9381 9.69774 20.7989 8.63402 20.508 7.60815C20.5415 6.43843 20.557 5.5011 20.557 4.80919C20.557 4.11728 20.5441 3.44104 20.5183 2.80919C20.6904 2.82578 20.8638 2.8214 21.0348 2.79613C21.3034 2.77002 21.4756 2.75697 21.5513 2.75697C23.738 2.75697 25.477 3.33138 26.7683 4.48021C28.1302 5.68125 28.8112 7.37403 28.8112 9.55854C28.8203 10.3899 28.6612 11.2143 28.3436 11.9812C28.0261 12.7481 27.5568 13.4412 26.9646 14.0181ZM33.8603 7.30788C33.8603 7.10945 33.8448 7.17734 33.8422 7.3366C33.8422 7.17211 33.8474 7.09901 33.8603 7.31311V7.30788ZM36.4584 13.4437C36.4584 13.4228 36.4584 13.4019 36.4584 13.3836C36.4584 13.4045 36.4584 13.4254 36.4584 13.4463V13.4437ZM36.975 11.2243L36.9569 11.2452L36.4997 11.5507C36.3648 12.1182 36.3031 12.7009 36.3164 13.2844L36.2518 13.2191C36.1227 12.8849 35.5338 12.6786 34.444 12.6003C34.0875 12.5742 33.5555 12.5481 33.2973 12.522V12.2844C33.2973 12.2504 34.0023 12.1095 34.9915 11.864C35.192 11.8202 35.3882 11.7582 35.5777 11.6786C35.8128 11.0651 35.9238 10.1434 35.9238 8.91624L35.3091 8.29744C35.3091 8.29744 33.8732 8.05723 33.8732 8.01023C33.8732 8.01023 33.8732 7.56898 33.8887 7.56898H34.382C35.3426 7.53892 36.2994 7.43241 37.2436 7.25044C37.4894 7.75102 37.7753 8.23042 38.0984 8.68386C38.2999 8.93141 38.521 9.16194 38.7596 9.37316L38.9274 9.52721C38.9274 9.52721 40.0845 10.4384 40.8541 11.1826L36.975 11.2243ZM41.9569 12.8275V12.7596C41.9569 12.6969 41.9336 12.6055 41.9182 12.4985L41.851 12.0572L41.0762 11.3001C41.226 11.4123 42.1093 12.005 42.1532 12.0494C42.1917 12.1173 42.2147 12.1932 42.2203 12.2713C42.229 12.3803 42.2089 12.4897 42.1622 12.5883C42.1155 12.6869 42.0438 12.7712 41.9543 12.8327L41.9569 12.8275ZM42.8427 18.8014C42.5862 18.8014 42.3383 18.7953 42.0989 18.7831C42.3383 18.7953 42.5862 18.8014 42.8427 18.8014ZM43.3309 6.29744C43.3541 6.01284 43.8474 5.7413 43.8474 5.73869L43.9455 5.9319L44.2529 6.54026C44.2684 6.54026 44.2529 6.54026 44.2529 6.54026L44.7694 7.06245L44.9424 7.23739C44.5525 6.98412 43.398 6.35488 43.318 6.29744H43.3309ZM48.3929 7.60292C48.3748 7.91885 48.3722 8.49849 48.3283 9.33922C48.2947 9.91363 48.2689 10.4489 48.2689 10.9528C48.0102 10.2887 47.622 9.68402 47.1274 9.17473C47.1274 9.17473 46.5489 8.57942 46.2932 8.28439C45.9168 7.9319 45.5116 7.61223 45.0819 7.32877C45.162 7.32877 48.4394 6.54548 48.4394 6.54548L48.3929 7.60292ZM54.9502 10.6943L52.3986 11.6682C52.39 11.7726 52.3856 11.891 52.3856 12.0233C52.3856 12.3923 52.4201 12.9276 52.489 13.629C52.5923 14.6734 52.6439 15.3227 52.6439 15.5768L51.0039 15.8927L48.7519 16.3392C48.5659 16.0102 48.4729 15.4933 48.4729 14.7883C48.4729 14.6891 48.4729 14.5794 48.4729 14.4724C48.5498 14.0724 48.5878 13.6657 48.5866 13.2583C48.5853 12.9597 48.5663 12.6616 48.5297 12.3653C48.5633 11.5011 48.6124 10.5037 48.6795 9.36794C48.7467 8.23217 48.7932 7.26611 48.8319 6.4306L49.8004 6.12512C49.7718 5.44091 49.615 4.76841 49.3381 4.14339C49.2942 4.03895 49.2426 3.94235 49.1935 3.84313C50.6296 3.39955 52.1237 3.17773 53.6253 3.18517C54.7334 3.14889 55.8278 3.44114 56.7736 4.0259C57.2462 4.3114 57.635 4.71901 57.9001 5.20681C58.1652 5.69461 58.2969 6.245 58.2818 6.80136C58.2818 8.53852 57.1679 9.83704 54.9399 10.6969L54.9502 10.6943ZM68.2767 11.757L68.2509 11.6969C68.2018 12.4802 68.1579 13.2191 68.1579 13.9084V14.1695V15.1408L65.9833 16.3262L64.8728 14.3392C64.501 13.6819 64.1631 13.0057 63.8604 12.3131C63.8268 12.3131 63.4626 12.3705 62.7679 12.4567C62.2135 12.5263 61.8933 12.6186 61.8072 12.7335C61.6849 12.8658 61.5635 13.388 61.443 14.3001C61.3122 15.3253 61.1865 15.9519 61.0659 16.1799L59.7746 15.9685C59.0733 15.875 58.392 15.6659 57.7576 15.3497L58.5608 9.68909C59.0409 9.04644 59.2986 8.26202 59.2942 7.45671C59.2945 7.08357 59.2334 6.71298 59.1135 6.3601C59.3171 5.33104 59.5758 4.31389 59.8883 3.31311L60.6295 3.32616C60.8292 3.32616 61.1021 3.32181 61.4482 3.31311L62.5536 3.27394L64.4673 3.18256C65.9239 6.10858 67.1937 8.9467 68.2767 11.6969V11.723V11.757ZM74.519 16.1956L74.0929 15.4515C73.8759 15.039 73.4549 14.2496 72.8299 13.0833C72.6749 12.8011 72.5024 12.529 72.3134 12.2687C72.3048 12.6551 72.2876 13.3914 72.2618 14.4776C72.2282 15.6708 72.0835 16.2531 71.833 16.287C71.6529 16.2234 71.4634 16.1907 71.2726 16.1904H71.0143C70.9007 16.1904 70.7328 16.2296 70.4978 16.2426C70.2628 16.2557 70.1027 16.2792 69.9813 16.2792C69.5345 16.2792 68.6383 16.0181 68.6383 15.9397V11.7309C68.6512 11.5037 68.6667 11.2739 68.6848 11.0363V10.9763C68.7287 10.4254 68.7803 9.85097 68.8449 9.25305C69.1135 6.87707 69.2564 5.24174 69.2736 4.34705C70.5667 3.56724 72.1369 3.17734 73.9844 3.17734C74.9467 3.15436 75.9007 3.36193 76.7685 3.78308C77.7654 4.29135 78.2638 5.03199 78.2638 6.00501C78.2638 7.27742 78.0366 8.29483 77.582 9.05723C77.1275 9.81963 76.3449 10.5159 75.2344 11.146L77.081 13.2348C77.9419 14.2165 78.3887 14.9484 78.4214 15.4306L76.456 15.9032C75.8165 16.0631 75.1637 16.1627 74.5061 16.2008L74.519 16.1956ZM78.6177 16.5455L77.1869 16.898L78.6177 16.5455Z" fill="#21375B"/>
<path d="M56.7744 4.02587C55.8286 3.44111 54.7343 3.14887 53.6262 3.18514C52.1241 3.1749 50.6291 3.39408 49.1918 3.83527C49.2408 3.93449 49.2925 4.03109 49.3364 4.13553C49.6132 4.76055 49.7701 5.43304 49.7987 6.11725L48.8302 6.42274C48.794 7.25651 48.7432 8.23562 48.6778 9.36008C48.6132 10.4958 48.5642 11.4906 48.528 12.3575C48.5645 12.6537 48.5835 12.9519 48.5848 13.2504C48.5861 13.6579 48.548 14.0645 48.4712 14.4645C48.4712 14.5716 48.4712 14.6812 48.4712 14.7804C48.4712 15.4906 48.5624 16.0032 48.745 16.3183L50.997 15.8718L52.637 15.5559C52.637 15.3105 52.5854 14.6612 52.4821 13.6081C52.4132 12.9119 52.3788 12.3766 52.3788 12.0024C52.3788 11.8701 52.3831 11.7517 52.3917 11.6473L54.9408 10.6864C57.1704 9.82657 58.2853 8.52892 58.2853 6.7935C58.2987 6.23819 58.1659 5.68926 57.9004 5.20293C57.6349 4.71661 57.2463 4.31038 56.7744 4.02587ZM53.5926 8.14337C52.8419 8.43231 52.4115 8.59419 52.3013 8.62901L52.2238 7.6029C52.204 7.27294 52.1477 6.94627 52.0559 6.629C52.5841 6.56615 53.1151 6.53129 53.6468 6.52457C53.8492 6.54242 54.0378 6.63544 54.1763 6.78566C54.2574 6.84754 54.3246 6.92605 54.3736 7.01604C54.4225 7.10604 54.4521 7.20549 54.4604 7.30786C54.4638 7.64554 54.1746 7.92404 53.5926 8.14337Z" fill="#21375B"/>
<path d="M77.1102 13.2349L75.2636 11.1462C76.3741 10.523 77.1567 9.82676 77.6112 9.0574C78.0658 8.28803 78.293 7.27063 78.293 6.00518C78.293 5.03216 77.7946 4.29151 76.7977 3.78325C75.9299 3.36209 74.9759 3.15452 74.0136 3.1775C72.173 3.1775 70.6028 3.57089 69.3028 4.35766C69.2856 5.25235 69.1427 6.88769 68.8741 9.26367C68.8095 9.86158 68.7579 10.436 68.714 10.9869V11.047C68.6959 11.2819 68.6804 11.5143 68.6675 11.7415V15.9373C68.6675 16.0104 69.5637 16.2767 70.0105 16.2767C70.1241 16.2767 70.292 16.2532 70.527 16.2402C70.762 16.2271 70.9221 16.188 71.0435 16.188H71.3018C71.4926 16.1883 71.6821 16.221 71.8622 16.2846C72.1205 16.2506 72.2574 15.6684 72.2909 14.4752C72.3168 13.3873 72.334 12.651 72.3426 12.2663C72.5316 12.5265 72.7041 12.7986 72.8591 13.0809C73.4841 14.2471 73.9051 15.0365 74.122 15.449L74.5249 16.1984C75.1923 16.1604 75.8547 16.059 76.5033 15.8955L78.4687 15.4229C78.4308 14.9408 77.978 14.2114 77.1102 13.2349ZM73.9619 8.46471C73.5945 8.76131 73.1407 8.92739 72.6706 8.93729C72.7653 7.57785 72.8393 6.68316 72.8927 6.25322C73.0419 6.16531 73.2137 6.1244 73.386 6.13573C73.7137 6.12571 74.0339 6.2361 74.2873 6.44643C74.4057 6.5528 74.4988 6.68483 74.5596 6.83268C74.6205 6.98052 74.6474 7.14035 74.6386 7.30022C74.6289 7.53553 74.5621 7.76483 74.4441 7.9679C74.3261 8.17097 74.1605 8.34159 73.9619 8.46471Z" fill="#21375B"/>
<path d="M26.777 4.47763C25.484 3.32881 23.745 2.75439 21.5601 2.75439C21.4826 2.75439 21.3104 2.76745 21.0435 2.79356C20.8725 2.81882 20.6991 2.82321 20.527 2.80661C20.5528 3.43847 20.5657 4.10513 20.5657 4.80661C20.5657 5.49852 20.5477 6.43586 20.5167 7.60557C20.8076 8.63144 20.9468 9.69517 20.9299 10.7622C20.9385 11.7197 20.7438 12.6679 20.3591 13.5429C20.3591 13.6708 20.3591 13.804 20.3591 13.9084C20.3591 14.1452 20.3677 14.4298 20.385 14.7622C20.4108 15.2531 20.4237 15.542 20.4237 15.6291C21.1284 15.7631 21.841 15.8503 22.557 15.8902C23.3792 15.8983 24.1944 15.7365 24.9526 15.4145C25.7107 15.0926 26.3957 14.6174 26.9656 14.0181C27.5598 13.4413 28.0309 12.7476 28.3498 11.9797C28.6687 11.2119 28.8287 10.3861 28.8199 9.55335C28.8199 7.37058 28.1389 5.67868 26.777 4.47763ZM25.1861 10.744C24.6024 11.462 24.0936 11.7622 23.6572 11.7622H22.9573V9.4228C22.9516 8.3664 23.0259 7.3111 23.1794 6.26614H23.621C24.2021 6.26614 24.7548 6.5899 25.2791 7.19043C25.7507 7.6827 26.0266 8.33332 26.0539 9.0181C26.0565 9.45936 25.7698 10.0129 25.1861 10.7309V10.744Z" fill="#21375B"/>
<path d="M23.6159 6.26904H23.1742C23.0225 7.31327 22.95 8.36769 22.9573 9.42309V11.7495H23.6649C24.1014 11.7495 24.6102 11.4492 25.1939 10.7312C25.7775 10.0132 26.0565 9.45965 26.0565 9.01317C26.0291 8.32839 25.7533 7.67776 25.2817 7.18549C24.7496 6.5928 24.197 6.26904 23.6159 6.26904ZM23.9903 10.0497C23.9903 10.0236 23.9903 10.0001 23.9903 9.974C23.9903 10.0001 23.9903 10.0288 23.9903 10.0549V10.0497ZM25.6458 8.79646C25.6605 8.87569 25.6683 8.95606 25.6691 9.03667C25.6671 9.10558 25.6567 9.17399 25.6381 9.24032C25.4611 9.71766 25.1915 10.1544 24.8452 10.5249C24.6011 10.8425 24.3132 11.123 23.9903 11.3578V10.0811C23.9903 9.03667 24.0446 8.20899 24.1066 7.57192C24.1066 7.49881 24.1221 7.31082 24.1298 7.31082H24.2719C24.5429 7.32257 24.8047 7.41324 25.026 7.57192C25.3317 7.9122 25.5468 8.3255 25.651 8.77296L25.6458 8.79646Z" fill="#21375B"/>
<path d="M64.4502 3.18555L62.5365 3.27693L61.4388 3.31348C61.0945 3.32219 60.8216 3.32654 60.6201 3.32654L59.8712 3.31348C59.5587 4.31427 59.3 5.33142 59.0964 6.36048C59.2163 6.71336 59.2774 7.08395 59.2772 7.45709C59.2815 8.2624 59.0238 9.04682 58.5437 9.68946L57.7405 15.35C58.3749 15.6663 59.0563 15.8753 59.7575 15.9688L61.0489 16.1803C61.1711 15.9523 61.2968 15.3257 61.4259 14.3004C61.5482 13.3883 61.6696 12.8661 61.7901 12.7338C61.8762 12.6207 62.1964 12.5285 62.7508 12.4571C63.4456 12.3709 63.8071 12.3213 63.8433 12.3135C64.146 13.0061 64.4839 13.6823 64.8557 14.3396L65.9662 16.3265L68.1537 15.1438V14.1725V13.9114C68.1537 13.2221 68.1976 12.4832 68.2467 11.6999L68.2725 11.76V11.726V11.6999C67.1809 8.94969 65.9068 6.11157 64.4502 3.18555ZM62.9006 10.0785L61.8211 10.0654C61.8582 9.57156 61.9211 9.08002 62.0096 8.59286C62.0979 8.10567 62.1608 7.61413 62.1981 7.12027C62.9437 8.47101 63.3741 9.43968 63.4895 10.0263C63.2962 10.0626 63.0998 10.0801 62.9032 10.0785H62.9006Z" fill="#21375B"/>
<path d="M62.012 8.5927C61.9235 9.07986 61.8606 9.57141 61.8235 10.0653L62.903 10.0783C63.104 10.0808 63.3047 10.0633 63.5022 10.0261C63.38 9.43953 62.9495 8.47086 62.2109 7.12012C62.1702 7.61416 62.1038 8.1057 62.012 8.5927Z" fill="#21375B"/>
<path d="M53.6444 6.52734C53.1126 6.53407 52.5816 6.56893 52.0535 6.63178C52.1453 6.94904 52.2016 7.27572 52.2213 7.60567L52.2988 8.63178C52.4107 8.59697 52.8412 8.43509 53.5901 8.14614C54.1738 7.92682 54.4657 7.64571 54.4657 7.3028C54.4574 7.20043 54.4278 7.10098 54.3789 7.01099C54.3299 6.92099 54.2627 6.84248 54.1816 6.78061C54.0399 6.63153 53.8484 6.54122 53.6444 6.52734ZM53.1743 7.87982V7.96337V7.87982V7.85371V7.75189C53.1743 7.75189 53.1743 7.75189 53.1743 7.73361C53.1743 7.73361 53.1743 7.71794 53.1743 7.71011C53.1743 7.70228 53.1743 7.68661 53.1743 7.67617C53.1763 7.65358 53.1763 7.63087 53.1743 7.60828C53.3396 7.60828 53.5824 7.58217 53.8975 7.55867H53.944C53.6968 7.6873 53.4393 7.79473 53.1743 7.87982Z" fill="#21375B"/>
<path d="M73.3758 6.13857C73.2035 6.12724 73.0317 6.16815 72.8825 6.25606C72.8309 6.686 72.7568 7.58069 72.6604 8.94013C73.1305 8.93023 73.5843 8.76416 73.9517 8.46755C74.151 8.34394 74.3171 8.1725 74.4351 7.96845C74.5531 7.7644 74.6195 7.53405 74.6284 7.29784C74.6381 7.13922 74.6125 6.98041 74.5536 6.8331C74.4946 6.68579 74.4036 6.55374 74.2875 6.44666C74.031 6.23485 73.7067 6.12526 73.3758 6.13857ZM74.352 7.26912C74.352 7.54849 74.1377 7.81742 73.8355 8.07329L73.7761 8.12551C73.7761 8.04196 73.7916 7.93491 73.8045 7.81481C73.8174 7.6947 73.8562 7.29262 73.8691 7.16468C74.0326 7.12818 74.2037 7.1513 74.352 7.22995V7.26912Z" fill="#21375B"/>
<path d="M5.45203 15.4646C6.32669 15.4646 7.30207 15.0764 8.37818 14.3001C7.77334 13.543 7.3642 12.6457 7.18757 11.6891C6.47423 11.6913 5.76638 11.5631 5.09821 11.3105C4.14435 10.8893 3.66742 10.0825 3.66742 8.89014C3.66597 8.42157 3.75365 7.95709 3.92568 7.52199C4.08308 7.0793 4.36828 6.69456 4.74438 6.41756C5.18285 6.16352 5.65031 5.96449 6.13643 5.82487C6.61869 5.65138 7.11461 5.51949 7.61888 5.43061C7.90135 4.88041 8.14056 4.30858 8.33427 3.72043L8.59254 3.01025C8.42036 2.5542 7.79106 2.32617 6.70462 2.32617C4.87438 2.32617 3.34372 3.17213 2.11266 4.86403C0.995346 6.35048 0.39193 8.16681 0.395194 10.0337C0.369702 11.44 0.882275 12.8019 1.82598 13.8353C2.27598 14.3582 2.83383 14.775 3.46029 15.0565C4.08675 15.3379 4.7666 15.4772 5.45203 15.4646Z" fill="#FF8654"/>
<path d="M20.4134 15.6319C21.1181 15.7659 21.8307 15.8531 22.5466 15.8929C23.3708 15.9022 24.1881 15.7406 24.9481 15.4182C25.7081 15.0958 26.3947 14.6193 26.9656 14.0183C27.5598 13.4415 28.0309 12.7478 28.3498 11.9799C28.6687 11.212 28.8287 10.3863 28.8199 9.55352C28.8199 7.36901 28.1389 5.67624 26.777 4.47519C25.484 3.32637 23.745 2.75195 21.5601 2.75195C21.4826 2.75195 21.3104 2.76501 21.0435 2.79112C20.8725 2.81638 20.6991 2.82076 20.527 2.80417C20.5528 3.43603 20.5657 4.10269 20.5657 4.80417C20.5657 5.49608 20.5477 6.43342 20.5167 7.60313C20.8076 8.629 20.9468 9.69273 20.9299 10.7598C20.9385 11.7173 20.7438 12.6655 20.3591 13.5405C20.3591 13.6684 20.3591 13.8016 20.3591 13.906C20.3591 14.1427 20.3677 14.4273 20.385 14.7598C20.4039 15.2524 20.4134 15.5431 20.4134 15.6319ZM22.9573 10.1332V9.42297C22.9516 8.36657 23.0259 7.31127 23.1794 6.26631H23.621C24.2021 6.26631 24.7548 6.60574 25.2791 7.20626C25.7516 7.69798 26.0275 8.34894 26.0539 9.03394C26.0539 9.48041 25.762 10.0131 25.1784 10.7337C24.5947 11.4543 24.0859 11.7624 23.6494 11.7624H22.9573V10.1332Z" fill="#FF8654"/>
<path d="M35.8706 16.107V13.3655C35.8706 13.1984 35.3773 13.073 34.3623 12.9843C33.4171 12.9059 32.7714 12.8485 32.2549 12.8146V11.3603C32.4143 11.2938 32.582 11.2498 32.7533 11.2297L33.4507 11.0731C33.8517 10.9967 34.247 10.892 34.6335 10.7597C34.8461 10.0557 34.9378 9.32011 34.9047 8.5848L32.8231 8.29759C32.8489 7.49342 32.8696 6.79107 32.8876 6.52997H33.7193C34.6233 6.51477 35.5244 6.42218 36.413 6.25321L36.5963 3.38115C35.5299 3.20777 34.4507 3.12654 33.3706 3.13833H30.1216C30.0771 3.53843 30.0116 3.93586 29.9253 4.32893C29.7161 5.42814 29.5612 6.55869 29.4501 7.65791C29.352 8.51953 29.2926 9.67618 29.2745 10.2689L29.1841 13.12L29.0808 16.107C29.8556 16.1853 30.2714 16.2245 30.3721 16.2245L35.8706 16.107ZM29.9305 10.2088C29.9305 10.2088 29.9305 10.1958 29.9305 10.1879C29.9305 10.1801 29.9305 10.1879 29.9305 10.2036V10.2088Z" fill="#FF8654"/>
<path d="M7.42773 10.0756C7.41302 10.4722 7.42856 10.8694 7.47422 11.2636C7.47422 11.3236 7.53104 11.6239 7.54653 11.6918C7.78543 12.853 8.38217 13.9078 9.25108 14.7048C9.34406 14.791 9.44995 14.8667 9.54809 14.9424L9.58683 14.9711C10.7258 15.8667 12.1901 16.321 13.9773 16.321C14.7723 16.3338 15.5608 16.1751 16.2903 15.8554C17.0198 15.5358 17.6735 15.0625 18.2077 14.4672C18.7635 13.8894 19.2009 13.2063 19.4947 12.4572C19.7886 11.708 19.9331 10.9075 19.92 10.1017C19.92 7.95372 19.4646 6.30011 18.5538 5.14084C17.538 3.83536 15.9978 3.18262 13.9334 3.18262C12.9262 3.18262 11.9069 3.55076 10.8756 4.28706C9.92548 4.95809 9.11619 5.81264 8.49437 6.80142C7.83118 7.76458 7.46048 8.90249 7.42773 10.0756ZM12.1385 7.6552C12.7291 6.92761 13.3842 6.56382 14.1039 6.56382C14.4051 6.54885 14.7055 6.60527 14.9813 6.72857C15.2571 6.85188 15.5005 7.03866 15.6922 7.274C16.0633 7.75803 16.2527 8.35931 16.2268 8.97113C16.2429 9.72562 16.0143 10.4647 15.576 11.0756C15.3696 11.3844 15.0903 11.6364 14.7634 11.8087C14.4365 11.981 14.0722 12.0683 13.7036 12.0625C13.0738 12.0907 12.4564 11.8792 11.9732 11.4698C11.748 11.2604 11.5717 11.003 11.4569 10.7163C11.3421 10.4296 11.2918 10.1207 11.3095 9.81186C11.3274 9.017 11.6208 8.25374 12.1385 7.6552Z" fill="#FF8654"/>
<path d="M12.5104 11.3578L12.4768 11.3369L12.5104 11.3578Z" fill="#FF8654"/>
<path d="M57.7507 15.3527C58.3851 15.6689 59.0665 15.878 59.7678 15.9715L61.0591 16.183C61.1814 15.9549 61.3071 15.3283 61.4362 14.3031C61.5584 13.391 61.6798 12.8688 61.8003 12.7365C61.8864 12.6233 62.2075 12.5311 62.7637 12.4597C63.4524 12.3727 63.8165 12.3248 63.8561 12.3161C64.1598 13.0087 64.4986 13.6849 64.8711 14.3422L65.9894 16.3292L68.1743 15.136L68.1485 14.1647V13.9036C68.1485 13.2143 68.1924 12.4754 68.2415 11.6921C67.1594 8.94014 65.899 6.10202 64.4424 3.17773L62.5338 3.26912L61.4388 3.3135C61.0927 3.3135 60.8189 3.32656 60.6201 3.32656L59.8711 3.3135C59.5586 4.31429 59.3 5.33144 59.0963 6.3605C59.2163 6.71338 59.2774 7.08397 59.2771 7.45711C59.2814 8.26242 59.0237 9.04684 58.5436 9.68948L57.7507 15.3527ZM62.0121 8.59027C62.1004 8.10308 62.1633 7.61154 62.2006 7.11768C62.9462 8.46842 63.3766 9.43709 63.492 10.0237C63.2944 10.0609 63.0937 10.0784 62.8928 10.0759L61.8133 10.0629C61.8538 9.56879 61.9202 9.07724 62.0121 8.59027Z" fill="#FFCE00"/>
<path d="M82.4565 17.0416C82.7147 16.5482 82.6476 15.5456 82.6398 15.4228L82.5494 14.133C82.536 13.5768 82.5836 13.0207 82.6915 12.4751C83.2648 13.8345 83.9535 15.2723 84.7576 16.7884C85.2862 16.6474 85.9241 16.516 86.6713 16.3941L88.5851 16.0782C88.5506 15.6657 88.0651 14.7362 87.1285 13.2897C86.4088 12.1757 85.7795 11.2244 85.2406 10.4359C85.7777 8.9459 86.797 7.0251 88.2984 4.67349L86.2039 3.95026C85.7011 3.95026 84.7542 5.11649 83.363 7.44895C83.363 7.16871 83.3587 6.94939 83.35 6.79099L83.2493 5.86932C83.2158 5.25574 83.1486 4.72832 83.1486 4.30274V3.92676C81.8573 4.16436 80.5659 4.30796 80.0494 4.36018V5.68916C80.0236 7.55829 79.8952 9.42452 79.6646 11.2792L79.1946 15.2505C79.364 15.5993 79.4599 15.9798 79.4761 16.368L79.0112 16.4777L78.9673 16.8589C79.5343 16.9922 80.1156 17.0535 80.6977 17.0416C81.8271 17.0329 82.4134 17.0329 82.4565 17.0416Z" fill="#FFCE00"/>
<path d="M50.997 15.8772L52.637 15.5613C52.637 15.3159 52.5854 14.6666 52.4821 13.6135C52.4132 12.9173 52.3788 12.382 52.3788 12.0078C52.3788 11.8755 52.3831 11.7571 52.3917 11.6527L54.9407 10.6918C57.1704 9.83196 58.2853 8.53431 58.2853 6.79889C58.3004 6.24252 58.1686 5.69214 57.9035 5.20434C57.6384 4.71654 57.2496 4.30893 56.777 4.02343C55.8312 3.43867 54.7368 3.14642 53.6288 3.1827C52.1257 3.17304 50.6298 3.39311 49.1918 3.83544C49.2408 3.93466 49.2925 4.03126 49.3364 4.1357C49.6132 4.76072 49.7701 5.43321 49.7987 6.11742L48.8302 6.42291C48.794 7.25668 48.7432 8.23579 48.6778 9.36024C48.6132 10.496 48.5642 11.4908 48.528 12.3576C48.5645 12.6539 48.5835 12.9521 48.5848 13.2506C48.5861 13.6581 48.548 14.0647 48.4712 14.4647C48.4712 14.5717 48.4712 14.6814 48.4712 14.7806C48.4712 15.4908 48.5624 16.0034 48.745 16.3185L50.997 15.8772ZM53.6443 6.52473C53.8466 6.54259 54.0352 6.63561 54.1737 6.78583C54.2548 6.84771 54.322 6.92622 54.371 7.01621C54.4199 7.10621 54.4495 7.20566 54.4578 7.30802C54.4578 7.65615 54.1694 7.9364 53.5926 8.14876C52.8419 8.4377 52.4115 8.59958 52.3013 8.6344L52.2238 7.60829C52.204 7.27833 52.1477 6.95166 52.0559 6.6344C52.5831 6.56989 53.1133 6.53328 53.6443 6.52473Z" fill="#FFCE00"/>
<path d="M68.6522 12.6607C68.6341 13.1829 68.6522 13.6868 68.6522 14.1594V15.9349C68.6522 16.0028 68.7813 16.0602 68.8976 16.1098C69.2562 16.2088 69.6241 16.2691 69.9952 16.29C70.1088 16.29 70.2767 16.2508 70.5117 16.2377C70.7467 16.2247 70.9069 16.1855 71.0283 16.1855H71.2865C71.4774 16.1859 71.6668 16.2185 71.847 16.2821C72.1052 16.2482 72.2421 15.6503 72.2757 14.4545C72.3015 13.3683 72.3196 12.6268 72.3273 12.2534C72.5165 12.5154 72.689 12.7892 72.8439 13.0733C73.4689 14.2395 73.8898 15.0297 74.1068 15.444L74.5097 16.196C75.177 16.158 75.8394 16.0566 76.488 15.8931L78.4534 15.4205C78.4276 14.9384 77.9808 14.2064 77.113 13.2247L75.2664 11.1359C76.3769 10.5128 77.1595 9.81651 77.614 9.04714C78.0686 8.27778 78.2958 7.26037 78.2958 5.99492C78.2958 5.0219 77.7974 4.28126 76.8005 3.77299C75.9327 3.35184 74.9787 3.14427 74.0164 3.16725C72.1741 3.17247 70.603 3.56934 69.303 4.35785C69.2858 5.25254 69.1429 6.88787 68.8743 9.26385C68.8098 9.86176 68.7581 10.4362 68.7142 10.9871V11.0471V11.068C68.6729 11.6137 68.6548 12.1359 68.6367 12.6346L68.6522 12.6607ZM72.88 6.25341C73.0292 6.16549 73.201 6.12458 73.3733 6.13592C73.7054 6.1227 74.0308 6.23327 74.2876 6.44662C74.406 6.55299 74.499 6.68502 74.5599 6.83287C74.6207 6.98071 74.6477 7.14054 74.6388 7.30041C74.63 7.53662 74.5636 7.76697 74.4455 7.97102C74.3275 8.17507 74.1615 8.34651 73.9621 8.47012C73.5947 8.76672 73.1409 8.9328 72.6708 8.9427C72.7586 7.57978 72.8284 6.68335 72.88 6.25341Z" fill="#FFCE00"/>
<path d="M38.2364 17.5118L38.1226 17.397L38.2027 17.4805L38.2364 17.5118Z" fill="#FFCE00"/>
<path d="M36.8443 13.8692C36.8572 14.0572 36.8959 14.2374 36.8959 14.4097C37.1542 15.5272 37.5287 16.3261 38.3293 16.7961C39.1299 17.2661 40.3618 17.4932 42.0431 17.4932C43.5686 17.4932 44.8246 17.0276 45.8112 16.0964C46.7978 15.1651 47.2911 13.9336 47.2911 12.4019C47.2911 10.8475 46.8365 9.59332 45.9274 8.63945C45.4677 8.16251 44.6206 7.58375 43.3861 6.90316C42.477 6.40359 42.0225 5.92753 42.0225 5.47496C42.0223 5.32375 42.0565 5.17453 42.1223 5.03874C42.1881 4.90296 42.2838 4.78423 42.4021 4.69167C42.6319 4.48458 42.9285 4.36945 43.2363 4.36791C43.4128 4.36713 43.5855 4.42031 43.7316 4.52049C43.8777 4.62067 43.9904 4.76316 44.055 4.92927L44.4347 5.95016C48.2906 5.09637 47.6552 5.34963 48.3525 5.06243V5.03632C48.3591 5.03694 48.3654 5.03889 48.3712 5.04202C48.3769 5.04516 48.382 5.04944 48.3861 5.05459C48.391 4.4413 48.265 3.83415 48.0168 3.27454C47.7685 2.71493 47.4038 2.216 46.9476 1.81177C46.0488 0.95763 44.8571 0.48959 43.6237 0.506291C41.8623 0.506291 40.4453 0.963211 39.3727 1.87705C38.4377 2.67426 37.8214 3.78915 37.5235 5.2217C37.5028 5.32613 37.4873 5.4358 37.4693 5.54285C37.4512 5.64989 37.4279 5.75694 37.415 5.86922C37.4899 6.99193 38.1304 8.10681 38.9646 8.89271C39.3455 9.23517 39.7484 9.55179 40.1707 9.8405C40.5856 10.1242 41.0066 10.4079 41.4336 10.6917C42.2859 11.2713 42.7249 11.7361 42.7249 12.1851C42.7249 12.9684 42.3479 13.3052 41.5963 13.3052H41.4285C41.3364 13.2944 41.248 13.2623 41.1702 13.2113C40.9793 12.9919 40.839 12.7324 40.7595 12.4515C40.726 12.3392 40.6743 12.005 40.6072 11.7439H38.5204C37.9135 11.7439 37.3969 11.6917 36.9708 11.6812C36.8375 12.2806 36.7811 12.8949 36.8029 13.5089C36.8029 13.6316 36.821 13.7334 36.8288 13.8509L36.8443 13.8692Z" fill="#FFCE00"/>
<path d="M48.3525 5.08619L48.3862 5.05225L48.3525 5.0653V5.08619Z" fill="#FFCE00"/>
<path d="M48.3525 5.06551L48.3862 5.05246C48.382 5.0473 48.377 5.04303 48.3712 5.03989C48.3654 5.03675 48.3591 5.03481 48.3525 5.03418V5.06551Z" fill="#FFCE00"/>
</g>
<defs>
<clipPath id="clip0">
<rect width="89.6" height="28" fill="white"/>
</clipPath>
</defs>
</svg>
